<svg xmlns="http://www.w3.org/2000/svg" width="63" height="57" viewBox="0 0 63 57">
  <defs>
    <style>
      .cls-1 { fill-rule: evenodd; }
    </style>
  </defs>
  <path d="M30.38 29.57l-1.19-2.05a1.27 1.27 0 0 0-1.73-.46l-4.88 2.8a1.286 1.286 0 0 0-.59.77 1.266 1.266 0 0 0 .126.96l1.138 1.96a10.013 10.013 0 0 0-.73 1.09 10.172 10.172 0 0 0-.478.93h-2.24a1.26 1.26 0 0 0-1.267 1.26v5.61a1.268 1.268 0 0 0 1.26 1.26h2.132a10.18 10.18 0 0 0 1.232 2.16l-1.058 1.82a1.245 1.245 0 0 0-.127.95 1.26 1.26 0 0 0 .59.77l4.88 2.8a1.192 1.192 0 0 0 .634.17 1.21 1.21 0 0 0 .326-.04 1.28 1.28 0 0 0 .77-.59l1.058-1.82a9.93 9.93 0 0 0 2.5-.02l1.066 1.84a1.282 1.282 0 0 0 .77.59 1.245 1.245 0 0 0 .96-.13l4.88-2.8a1.252 1.252 0 0 0 .463-1.72l-1.12-1.93c.205-.29.4-.58.57-.88a10.988 10.988 0 0 0 .583-1.17h2.274a1.267 1.267 0 0 0 1.267-1.26v-5.61a1.26 1.26 0 0 0-1.265-1.26H40.81a10.273 10.273 0 0 0-1.125-1.92l1.2-2.06a1.266 1.266 0 0 0 .126-.96 1.286 1.286 0 0 0-.59-.77l-4.88-2.8a1.27 1.27 0 0 0-1.73.46l-1.2 2.07a10.39 10.39 0 0 0-2.23-.02zm2.633 2.63a1.272 1.272 0 0 0 1.356-.6l1-1.73 2.68 1.55-1 1.72a1.253 1.253 0 0 0 .152 1.47 7.69 7.69 0 0 1 1.544 2.63 1.264 1.264 0 0 0 1.2.85h1.977v3.09H40.03a1.26 1.26 0 0 0-1.21.88 7.878 7.878 0 0 1-.68 1.55 7.675 7.675 0 0 1-.86 1.2 1.26 1.26 0 0 0-.14 1.46l.915 1.58-2.688 1.54-.88-1.51a1.265 1.265 0 0 0-1.372-.6 7.69 7.69 0 0 1-3.275.02 1.277 1.277 0 0 0-1.356.61l-.86 1.48-2.687-1.54.86-1.49a1.256 1.256 0 0 0-.15-1.47 7.582 7.582 0 0 1-1.617-2.83 1.257 1.257 0 0 0-1.208-.88H21.07v-3.09h1.834a1.265 1.265 0 0 0 1.2-.85 7.615 7.615 0 0 1 .615-1.34 7.722 7.722 0 0 1 1.002-1.37 1.248 1.248 0 0 0 .165-1.48l-.947-1.63 2.69-1.55.99 1.71a1.262 1.262 0 0 0 1.34.6 7.862 7.862 0 0 1 3.05.02zm-7.132 7.43a5.62 5.62 0 1 0 5.62-5.59 5.606 5.606 0 0 0-5.62 5.59zm5.62-3.07a3.07 3.07 0 1 1-3.08 3.07 3.084 3.084 0 0 1 3.087-3.07zM61.74 4.82H31.03v-.67A4.163 4.163 0 0 0 26.858 0H4.168A4.163 4.163 0 0 0 0 4.15v51.59A1.26 1.26 0 0 0 1.266 57h60.468A1.26 1.26 0 0 0 63 55.74V6.08a1.26 1.26 0 0 0-1.266-1.26zm-1.27 49.62H2.532V24.27H27.2a3.313 3.313 0 0 0 3.126-2.2l1.253-3.54a.782.782 0 0 1 .73-.52h28.15v36.43zM7.6 21.75v-9.37h47.8v3.11H32.316a3.325 3.325 0 0 0-3.125 2.2l-1.25 3.54a.784.784 0 0 1-.732.52H7.6zm52.87-6.26h-2.533v-4.37a1.26 1.26 0 0 0-1.267-1.26H6.332a1.26 1.26 0 0 0-1.267 1.26v10.63H2.533V4.15a1.634 1.634 0 0 1 1.635-1.63h22.69a1.633 1.633 0 0 1 1.634 1.63v1.93a1.267 1.267 0 0 0 1.267 1.26h30.7v8.15z" class="cls-1"/>
</svg>
