<svg xmlns="http://www.w3.org/2000/svg" width="61" height="56" viewBox="0 0 61 56">
  <defs>
    <style>
      .cls-1 { fill-rule: evenodd; }
    </style>
  </defs>
  <path d="M5.68 31.2a1.19 1.19 0 0 0 0 1.58 45.076 45.076 0 0 0 7.26 6.27c5.9 4.12 12.03 6.3 17.71 6.3s11.81-2.18 17.71-6.3a45.076 45.076 0 0 0 7.26-6.27 1.19 1.19 0 0 0 0-1.58 45.076 45.076 0 0 0-7.26-6.27c-5.9-4.12-12.03-6.3-17.71-6.3s-11.81 2.18-17.71 6.3a45.076 45.076 0 0 0-7.26 6.27zm47.39.79a43.542 43.542 0 0 1-12.14 8.58 13.325 13.325 0 0 0 0-17.16 43.542 43.542 0 0 1 12.14 8.58zM30.65 21.01a10.98 10.98 0 1 1-11.02 10.98 11.007 11.007 0 0 1 11.02-10.98zM17.23 31.99a13.317 13.317 0 0 0 3.14 8.58 43.542 43.542 0 0 1-12.14-8.58 43.542 43.542 0 0 1 12.14-8.58 13.317 13.317 0 0 0-3.14 8.58zM59.8 0H1.2A1.2 1.2 0 0 0 0 1.19v53.62A1.2 1.2 0 0 0 1.2 56h58.6a1.2 1.2 0 0 0 1.2-1.19V1.19A1.2 1.2 0 0 0 59.8 0zM16.6 2.38h11.81v5.07H16.6V2.38zm42.01 51.24H2.39V2.38H14.2v6.26a1.2 1.2 0 0 0 1.2 1.19h43.21v43.79zm0-46.17H30.8V2.38h27.81v5.07zm-2.84-3.73a1.2 1.2 0 1 1-1.2 1.19 1.193 1.193 0 0 1 1.2-1.19zm-4.04 0a1.2 1.2 0 1 1-1.2 1.19 1.2 1.2 0 0 1 1.2-1.19zm-3.44 0a1.2 1.2 0 1 1-1.19 1.19 1.2 1.2 0 0 1 1.19-1.19zm-43.95 0h7.92v2.39H4.34V3.72zm14.2 0h2.24v2.39h-2.24V3.72zm3.74 0h4.63v2.39h-4.63V3.72zm8.37 34.56a6.3 6.3 0 1 0-6.32-6.29 6.314 6.314 0 0 0 6.32 6.29zm0-10.2a3.91 3.91 0 1 1-3.93 3.91 3.92 3.92 0 0 1 3.93-3.91z" class="cls-1"/>
</svg>
