<svg xmlns="http://www.w3.org/2000/svg" width="60" height="60" viewBox="0 0 60 60">
  <defs>
    <style>
      .cls-1 { fill-rule: evenodd; }
    </style>
  </defs>
  <path d="M59.36 26.92l-3.03-1.86a1.273 1.273 0 0 0-.71-.2h-2.27a20.493 20.493 0 0 0-.55-2.08l1.96-1.14a1.277 1.277 0 0 0 .51-.52l1.69-3.14a1.305 1.305 0 0 0-.02-1.31l-1.92-3.34a1.355 1.355 0 0 0-1.13-.67l-3.56-.11a1.44 1.44 0 0 0-.71.18l-1.97 1.14c-.48-.53-.99-1.04-1.52-1.52l1.14-1.97a1.44 1.44 0 0 0 .18-.71l-.11-3.56a1.355 1.355 0 0 0-.67-1.13l-3.34-1.92a1.305 1.305 0 0 0-1.31-.02l-3.14 1.69a1.218 1.218 0 0 0-.52.51L37.22 7.2a20.493 20.493 0 0 0-2.08-.55V4.38a1.273 1.273 0 0 0-.2-.71L33.08.64A1.35 1.35 0 0 0 31.93 0h-3.86a1.334 1.334 0 0 0-1.14.64l-1.87 3.03a1.36 1.36 0 0 0-.2.71v2.27a20.493 20.493 0 0 0-2.08.55l-1.14-1.96a1.277 1.277 0 0 0-.52-.51l-3.14-1.69a1.305 1.305 0 0 0-1.31.02l-3.34 1.92a1.355 1.355 0 0 0-.67 1.13l-.11 3.56a1.44 1.44 0 0 0 .18.71l1.14 1.97c-.53.48-1.04.99-1.52 1.52l-1.97-1.14a1.44 1.44 0 0 0-.71-.18l-3.56.11a1.355 1.355 0 0 0-1.13.67l-1.92 3.34a1.305 1.305 0 0 0-.02 1.31l1.69 3.14a1.218 1.218 0 0 0 .51.52l1.96 1.14a20.493 20.493 0 0 0-.55 2.08H4.38a1.273 1.273 0 0 0-.71.2L.64 26.92A1.35 1.35 0 0 0 0 28.07v3.86a1.334 1.334 0 0 0 .64 1.14l3.03 1.87a1.36 1.36 0 0 0 .71.2h2.27a20.493 20.493 0 0 0 .55 2.08l-1.96 1.13a1.366 1.366 0 0 0-.51.53l-1.69 3.14a1.305 1.305 0 0 0 .02 1.31l1.92 3.34a1.355 1.355 0 0 0 1.13.67l3.56.11a1.44 1.44 0 0 0 .71-.18l1.97-1.14c.48.53.99 1.04 1.52 1.52l-1.14 1.97a1.44 1.44 0 0 0-.18.71l.11 3.56a1.355 1.355 0 0 0 .67 1.13l3.34 1.92a1.305 1.305 0 0 0 1.31.02l3.14-1.69a1.277 1.277 0 0 0 .52-.51l1.14-1.96a20.493 20.493 0 0 0 2.08.55v2.27a1.273 1.273 0 0 0 .2.71l1.86 3.03a1.35 1.35 0 0 0 1.15.64h3.86a1.334 1.334 0 0 0 1.14-.64l1.87-3.03a1.273 1.273 0 0 0 .2-.71v-2.27a20.493 20.493 0 0 0 2.08-.55l1.13 1.96a1.366 1.366 0 0 0 .53.51l3.14 1.69a1.305 1.305 0 0 0 1.31-.02l3.34-1.92a1.355 1.355 0 0 0 .67-1.13l.11-3.56a1.44 1.44 0 0 0-.18-.71l-1.14-1.97c.53-.48 1.04-.99 1.52-1.52l1.97 1.14a1.44 1.44 0 0 0 .71.18l3.56-.11a1.355 1.355 0 0 0 1.13-.67l1.92-3.34a1.305 1.305 0 0 0 .02-1.31l-1.69-3.14a1.366 1.366 0 0 0-.51-.53l-1.96-1.13a20.493 20.493 0 0 0 .55-2.08h2.27a1.36 1.36 0 0 0 .71-.2l3.03-1.87a1.334 1.334 0 0 0 .64-1.14v-3.86a1.35 1.35 0 0 0-.64-1.15zm-2.06 4.25l-2.06 1.28h-3a1.35 1.35 0 0 0-1.33 1.12 21.494 21.494 0 0 1-1.01 3.8 1.34 1.34 0 0 0 .59 1.63l2.59 1.5 1.15 2.13-1.17 2.04-2.43.07-2.59-1.5a1.34 1.34 0 0 0-1.71.31 22.812 22.812 0 0 1-2.78 2.78 1.34 1.34 0 0 0-.31 1.71l1.5 2.59-.07 2.43-2.04 1.17-2.13-1.15-1.5-2.59a1.337 1.337 0 0 0-1.63-.59 20.666 20.666 0 0 1-3.8 1.01 1.35 1.35 0 0 0-1.12 1.33v3l-1.28 2.06h-2.34l-1.28-2.06v-3a1.35 1.35 0 0 0-1.12-1.33 21.494 21.494 0 0 1-3.8-1.01 1.34 1.34 0 0 0-1.63.59l-1.5 2.59-2.13 1.15-2.04-1.17-.07-2.43 1.5-2.59a1.34 1.34 0 0 0-.31-1.71 22.812 22.812 0 0 1-2.78-2.78 1.34 1.34 0 0 0-1.71-.31l-2.59 1.5-2.43-.07-1.17-2.04 1.15-2.13L9.51 39a1.34 1.34 0 0 0 .59-1.63 20.88 20.88 0 0 1-1.01-3.8 1.35 1.35 0 0 0-1.33-1.12h-3L2.7 31.17v-2.34l2.06-1.28h3a1.35 1.35 0 0 0 1.33-1.12 21.494 21.494 0 0 1 1.01-3.8A1.337 1.337 0 0 0 9.51 21l-2.59-1.5-1.15-2.13 1.17-2.04 2.43-.07 2.59 1.5a1.34 1.34 0 0 0 1.71-.31 22.812 22.812 0 0 1 2.78-2.78 1.34 1.34 0 0 0 .31-1.71l-1.5-2.59.07-2.43 2.04-1.17 2.13 1.15L21 9.51a1.34 1.34 0 0 0 1.63.59 21.494 21.494 0 0 1 3.8-1.01 1.35 1.35 0 0 0 1.12-1.33v-3l1.28-2.06h2.35l1.27 2.06v3a1.35 1.35 0 0 0 1.12 1.33 21.494 21.494 0 0 1 3.8 1.01A1.337 1.337 0 0 0 39 9.51l1.5-2.59 2.13-1.15 2.04 1.17.07 2.43-1.5 2.59a1.34 1.34 0 0 0 .31 1.71 22.812 22.812 0 0 1 2.78 2.78 1.34 1.34 0 0 0 1.71.31l2.59-1.5 2.43.07 1.17 2.04-1.15 2.13-2.59 1.5a1.34 1.34 0 0 0-.59 1.63 21.494 21.494 0 0 1 1.01 3.8 1.35 1.35 0 0 0 1.33 1.12h3l2.06 1.28v2.34zM30 11.68A18.32 18.32 0 1 0 48.32 30 18.343 18.343 0 0 0 30 11.68zm0 33.95A15.63 15.63 0 1 1 45.63 30 15.646 15.646 0 0 1 30 45.63zm0-27.08A11.45 11.45 0 1 0 41.45 30 11.468 11.468 0 0 0 30 18.55zm0 20.2A8.75 8.75 0 1 1 38.75 30 8.753 8.753 0 0 1 30 38.75z" class="cls-1"/>
</svg>
