<svg xmlns="http://www.w3.org/2000/svg" width="61" height="56" viewBox="0 0 61 56">
  <defs>
    <style>
      .cls-1 { fill-rule: evenodd; }
    </style>
  </defs>
  <path d="M59.8 0H1.2A1.19 1.19 0 0 0 0 1.19v53.62A1.19 1.19 0 0 0 1.2 56h58.6a1.192 1.192 0 0 0 1.2-1.19V1.19A1.192 1.192 0 0 0 59.8 0zM16.592 2.38h11.81v5.07H16.6V2.38zm42.012 51.24H2.392V2.38H14.2v6.26a1.192 1.192 0 0 0 1.2 1.19h43.21v43.79zm0-46.17H30.8V2.38h27.81v5.07zm-2.84-3.73a1.2 1.2 0 1 1-1.2 1.19 1.2 1.2 0 0 1 1.203-1.19zm-4.038 0a1.2 1.2 0 1 1-1.2 1.19 1.2 1.2 0 0 1 1.204-1.19zm-3.438 0a1.2 1.2 0 1 1-1.2 1.19 1.2 1.2 0 0 1 1.204-1.19zm-43.956 0h7.924v2.39H4.332V3.72zm14.2 0h2.243v2.39h-2.243V3.72zm3.738 0h4.635v2.39H22.27V3.72zM38.22 30a1.19 1.19 0 0 0 .952.47 1.213 1.213 0 0 0 .723-.24l8.522-6.45a1.188 1.188 0 0 0 .473-.95 1.2 1.2 0 0 0-.473-.95l-8.522-6.45a1.21 1.21 0 0 0-1.676.23 1.19 1.19 0 0 0 .225 1.67l7.268 5.5-7.268 5.5a1.19 1.19 0 0 0-.23 1.67zm-26.11-7.17a1.188 1.188 0 0 0 .473.95l8.522 6.45a1.213 1.213 0 0 0 .722.24 1.19 1.19 0 0 0 .725-2.14l-7.268-5.5 7.268-5.5a1.19 1.19 0 0 0 .23-1.67 1.21 1.21 0 0 0-1.677-.23l-8.522 6.45a1.2 1.2 0 0 0-.473.95zM26 30.3a1.15 1.15 0 0 0 .615.17 1.18 1.18 0 0 0 1.026-.58L35.42 17a1.2 1.2 0 0 0-2.05-1.23l-7.776 12.9A1.185 1.185 0 0 0 26 30.3zM9.87 36.94H7.63a1.19 1.19 0 1 0 0 2.38h2.24a1.19 1.19 0 1 0-.002-2.38zm3.888 0a1.19 1.19 0 1 0 0 2.38h8.97a1.19 1.19 0 1 0 0-2.38h-8.97zm12.11 1.19a1.192 1.192 0 0 0 1.2 1.19h8.522a1.19 1.19 0 1 0 0-2.38h-8.522a1.192 1.192 0 0 0-1.203 1.19zM6.432 42.89a1.19 1.19 0 0 0 1.2 1.19H18.24a1.19 1.19 0 1 0 0-2.38H7.625a1.2 1.2 0 0 0-1.196 1.19zm20.034-1.19h-3.29a1.19 1.19 0 1 0 0 2.38h3.29a1.19 1.19 0 1 0-.003-2.38zm16.147 0H30.35a1.19 1.19 0 1 0 0 2.38h12.26a1.19 1.19 0 1 0 0-2.38zm-33.19 4.77H7.627a1.19 1.19 0 1 0 0 2.38H9.42a1.19 1.19 0 1 0-.002-2.38zm11.063 0h-5.83a1.19 1.19 0 1 0 0 2.38h5.83a1.19 1.19 0 1 0-.003-2.38z" class="cls-1"/>
</svg>
