<svg xmlns="http://www.w3.org/2000/svg" width="60" height="56" viewBox="0 0 60 56">
  <defs>
    <style>
      .cls-1 { fill-rule: evenodd; }
    </style>
  </defs>
  <path d="M50 15.89h-.316v-.31a15.817 15.817 0 0 0-30.06-6.64 7.527 7.527 0 0 0-1.5-.15 7.76 7.76 0 0 0-7.552 5.73c-.19-.01-.382-.02-.573-.02a9.948 9.948 0 0 0-10 9.87 12.56 12.56 0 0 0 .31 2.68 6.118 6.118 0 0 0 5.96 4.73h8.1v7.56h-2.527a4.315 4.315 0 1 0 0 2.47h3.777a1.248 1.248 0 0 0 1.25-1.24v-8.79h6.25v15.76a4.375 4.375 0 1 0 2.5 0V31.78h8.75v15.76a4.375 4.375 0 1 0 2.5 0V31.78h6.25v8.79a1.248 1.248 0 0 0 1.25 1.24h3.778a4.325 4.325 0 1 0 0-2.47H45.62v-7.56h8.268a6.07 6.07 0 0 0 6.107-5.97v-.05A9.948 9.948 0 0 0 50 15.89zM7.656 42.42a1.85 1.85 0 1 1 1.875-1.85 1.865 1.865 0 0 1-1.872 1.85zm44.688-3.7a1.85 1.85 0 1 1-1.875 1.85 1.865 1.865 0 0 1 1.872-1.85zM26.25 51.68a1.875 1.875 0 1 1-1.875-1.85 1.865 1.865 0 0 1 1.875 1.85zm11.25 0a1.875 1.875 0 1 1-1.875-1.85 1.865 1.865 0 0 1 1.875 1.85zm20-25.88a3.573 3.573 0 0 1-3.607 3.51H6.273a3.608 3.608 0 0 1-3.52-2.78 10.213 10.213 0 0 1-.253-2.16 7.46 7.46 0 0 1 7.5-7.4 7.8 7.8 0 0 1 1.367.12 1.268 1.268 0 0 0 .98-.23 1.208 1.208 0 0 0 .49-.86 5.265 5.265 0 0 1 5.288-4.74 5.44 5.44 0 0 1 1.8.31 1.253 1.253 0 0 0 1.592-.72A13.37 13.37 0 0 1 33.91 2.47a13.21 13.21 0 0 1 13.28 13.11 12.75 12.75 0 0 1-.093 1.55 1.208 1.208 0 0 0 .39 1.05 1.242 1.242 0 0 0 1.09.31 7.536 7.536 0 0 1 1.426-.13 7.46 7.46 0 0 1 7.5 7.4v.04zM10 19.44a4.97 4.97 0 0 0-5 4.93 7.494 7.494 0 0 0 .163 1.48 1.24 1.24 0 0 0 1.224.99 1.043 1.043 0 0 0 .248-.02 1.238 1.238 0 0 0 .98-1.45 5.316 5.316 0 0 1-.115-1 2.48 2.48 0 0 1 2.5-2.46 1.235 1.235 0 1 0 0-2.47zm40 1.39a1.23 1.23 0 1 0 0 2.46 2.48 2.48 0 0 1 2.5 2.37 1.243 1.243 0 0 0 1.248 1.18h.052a1.24 1.24 0 0 0 1.2-1.28 4.953 4.953 0 0 0-5-4.73zM33.906 4.94a10.846 10.846 0 0 0-10.06 6.8 1.23 1.23 0 0 0 .716 1.6 1.25 1.25 0 0 0 1.616-.71 8.347 8.347 0 0 1 7.728-5.23 8.24 8.24 0 0 1 8.282 8.18 1.25 1.25 0 0 0 2.5 0A10.723 10.723 0 0 0 33.906 4.94z" class="cls-1"/>
</svg>
