<svg xmlns="http://www.w3.org/2000/svg" width="54" height="57" viewBox="0 0 54 57">
  <defs>
    <style>
      .cls-1 { fill-rule: evenodd; }
    </style>
  </defs>
  <path d="M36.88 12.73V6.37a1.217 1.217 0 0 0-1.21-1.22H6.047a1.217 1.217 0 0 0-1.21 1.22v6.36a1.217 1.217 0 0 0 1.21 1.22H35.67a1.217 1.217 0 0 0 1.21-1.22zm-2.418-1.21H7.255V7.58h27.207v3.94zm18.616 1.1l-2.35-2.35a3.465 3.465 0 0 0-4.7-.25l-4.308 4.31V1.21A1.21 1.21 0 0 0 40.51 0H1.21A1.208 1.208 0 0 0 .003 1.21v54.58A1.208 1.208 0 0 0 1.213 57h39.3a1.21 1.21 0 0 0 1.207-1.21V28.48l11.36-11.39a3.174 3.174 0 0 0-.002-4.47zM2.418 54.57V2.43H39.3v14.33L20.142 35.97c-.008.01-.013.02-.02.03a1.2 1.2 0 0 0-.262.42l-3.01 8.34a1.216 1.216 0 0 0 1.137 1.63 1.146 1.146 0 0 0 .406-.07l8.354-2.99a1.2 1.2 0 0 0 .438-.27c0-.01.008-.01.01-.01l12.1-12.14v23.66H2.415zm19.068-15.53l2.647 2.65L20 43.17zm4.854 1.44l-3.634-3.65 21.8-21.87 3.634 3.65zm25.028-25.11l-1.515 1.52-3.633-3.64 1.514-1.52a1.172 1.172 0 0 1 1.283.25l2.35 2.36a.73.73 0 0 1 0 1.03zM34.084 48.66H7.634a1.215 1.215 0 0 0 0 2.43h26.45a1.215 1.215 0 0 0 0-2.43zm-6.726-26.53H7.633a1.215 1.215 0 0 0 0 2.43h19.725a1.215 1.215 0 0 0 0-2.43zm4.988-5.3H20.86a1.21 1.21 0 1 0 0 2.42h11.486a1.21 1.21 0 0 0 0-2.42zM15.72 19.25a1.21 1.21 0 0 0 0-2.42H7.633a1.21 1.21 0 0 0 0 2.42h8.087zm6.5 8.19H7.633a1.21 1.21 0 0 0 0 2.42H22.22a1.21 1.21 0 0 0 0-2.42zm-4.535 5.3H7.633a1.215 1.215 0 0 0 0 2.43h10.05a1.215 1.215 0 0 0 0-2.43zm-1.51 6.52a1.208 1.208 0 0 0-1.21-1.21h-7.33a1.215 1.215 0 0 0 0 2.43h7.33a1.217 1.217 0 0 0 1.208-1.22zm-8.54 4.1a1.21 1.21 0 0 0 0 2.42h4.987a1.21 1.21 0 0 0 0-2.42H7.634z" class="cls-1"/>
</svg>
